<svg width="32" height="32" viewBox="0 0 32 32" fill="none" xmlns="http://www.w3.org/2000/svg">
<g id="Search">
<path id="Vector" d="M21.1316 19.1876H20.1121L19.7508 18.8394C21.2994 17.0338 22.0995 14.5704 21.6607 11.9523C21.0542 8.36695 18.0603 5.50379 14.447 5.06529C8.98834 4.39464 4.39429 8.986 5.06533 14.4415C5.50409 18.0527 8.36892 21.0448 11.9564 21.6509C14.5761 22.0894 17.0408 21.2898 18.8475 19.7422L19.1959 20.1033V21.1222L24.6804 26.6034C25.2095 27.1322 26.0741 27.1322 26.6032 26.6034C27.1323 26.0746 27.1323 25.2105 26.6032 24.6817L21.1316 19.1876ZM13.3888 19.1876C10.1756 19.1876 7.58174 16.5953 7.58174 13.3839C7.58174 10.1725 10.1756 7.58022 13.3888 7.58022C16.6021 7.58022 19.1959 10.1725 19.1959 13.3839C19.1959 16.5953 16.6021 19.1876 13.3888 19.1876Z" fill="black"/>
</g>
</svg>
