<svg width="32" height="32" viewBox="0 0 32 32" fill="none" xmlns="http://www.w3.org/2000/svg">
<g id="Shopping bag">
<path id="Vector" d="M8.00004 29.3333C7.26671 29.3333 6.63915 29.0724 6.11737 28.5507C5.59471 28.028 5.33337 27.4 5.33337 26.6667V10.6667C5.33337 9.93332 5.59471 9.30577 6.11737 8.78399C6.63915 8.26132 7.26671 7.99999 8.00004 7.99999H10.6667C10.6667 6.53332 11.1889 5.27777 12.2334 4.23332C13.2778 3.18888 14.5334 2.66666 16 2.66666C17.4667 2.66666 18.7223 3.18888 19.7667 4.23332C20.8112 5.27777 21.3334 6.53332 21.3334 7.99999H24C24.7334 7.99999 25.3614 8.26132 25.884 8.78399C26.4058 9.30577 26.6667 9.93332 26.6667 10.6667V26.6667C26.6667 27.4 26.4058 28.028 25.884 28.5507C25.3614 29.0724 24.7334 29.3333 24 29.3333H8.00004ZM13.3334 7.99999H18.6667C18.6667 7.26666 18.4058 6.6391 17.884 6.11732C17.3614 5.59466 16.7334 5.33332 16 5.33332C15.2667 5.33332 14.6392 5.59466 14.1174 6.11732C13.5947 6.6391 13.3334 7.26666 13.3334 7.99999ZM8.00004 26.6667H24V10.6667H21.3334V13.3333C21.3334 13.7111 21.2058 14.0275 20.9507 14.2827C20.6947 14.5387 20.3778 14.6667 20 14.6667C19.6223 14.6667 19.3058 14.5387 19.0507 14.2827C18.7947 14.0275 18.6667 13.7111 18.6667 13.3333V10.6667H13.3334V13.3333C13.3334 13.7111 13.2058 14.0275 12.9507 14.2827C12.6947 14.5387 12.3778 14.6667 12 14.6667C11.6223 14.6667 11.3058 14.5387 11.0507 14.2827C10.7947 14.0275 10.6667 13.7111 10.6667 13.3333V10.6667H8.00004V26.6667Z" fill="black"/>
</g>
</svg>
