<svg width="32" height="32" viewBox="0 0 32 32" fill="none" xmlns="http://www.w3.org/2000/svg">
<g id="Person">
<path id="Vector" d="M16 16C14.35 16 12.9375 15.4125 11.7625 14.2375C10.5875 13.0625 10 11.65 10 10C10 8.35 10.5875 6.9375 11.7625 5.7625C12.9375 4.5875 14.35 4 16 4C17.65 4 19.0625 4.5875 20.2375 5.7625C21.4125 6.9375 22 8.35 22 10C22 11.65 21.4125 13.0625 20.2375 14.2375C19.0625 15.4125 17.65 16 16 16ZM25 28H7C6.175 28 5.469 27.7065 4.882 27.1195C4.294 26.5315 4 25.825 4 25V23.8C4 22.95 4.219 22.1685 4.657 21.4555C5.094 20.7435 5.675 20.2 6.4 19.825C7.95 19.05 9.525 18.4685 11.125 18.0805C12.725 17.6935 14.35 17.5 16 17.5C17.65 17.5 19.275 17.6935 20.875 18.0805C22.475 18.4685 24.05 19.05 25.6 19.825C26.325 20.2 26.906 20.7435 27.343 21.4555C27.781 22.1685 28 22.95 28 23.8V25C28 25.825 27.7065 26.5315 27.1195 27.1195C26.5315 27.7065 25.825 28 25 28ZM7 25H25V23.8C25 23.525 24.9315 23.275 24.7945 23.05C24.6565 22.825 24.475 22.65 24.25 22.525C22.9 21.85 21.5375 21.3435 20.1625 21.0055C18.7875 20.6685 17.4 20.5 16 20.5C14.6 20.5 13.2125 20.6685 11.8375 21.0055C10.4625 21.3435 9.1 21.85 7.75 22.525C7.525 22.65 7.344 22.825 7.207 23.05C7.069 23.275 7 23.525 7 23.8V25ZM16 13C16.825 13 17.5315 12.706 18.1195 12.118C18.7065 11.531 19 10.825 19 10C19 9.175 18.7065 8.469 18.1195 7.882C17.5315 7.294 16.825 7 16 7C15.175 7 14.469 7.294 13.882 7.882C13.294 8.469 13 9.175 13 10C13 10.825 13.294 11.531 13.882 12.118C14.469 12.706 15.175 13 16 13Z" fill="black"/>
</g>
</svg>
